<mxfile host="app.diagrams.net" modified="2024-02-05T10:20:17.250Z" agent="Mozilla/5.0 (Windows NT 10.0; Win64; x64) AppleWebKit/537.36 (KHTML, like Gecko) Chrome/121.0.0.0 Safari/537.36 Edg/121.0.0.0" etag="Uw8wEZnsNJFMPZzqgqog" version="23.1.1" type="device">
  <diagram id="R2lEEEUBdFMjLlhIrx00" name="Page-1">
    <mxGraphModel dx="1179" dy="679" grid="1" gridSize="10" guides="1" tooltips="1" connect="1" arrows="1" fold="1" page="1" pageScale="1" pageWidth="850" pageHeight="1100" math="0" shadow="0" extFonts="Permanent Marker^https://fonts.googleapis.com/css?family=Permanent+Marker">
      <root>
        <mxCell id="0" />
        <mxCell id="1" parent="0" />
        <mxCell id="iO7XN2Z6oZD6PPcnX_Sq-40" value="&lt;font style=&quot;font-size: 14px;&quot;&gt;HTTPS-request&lt;/font&gt;" style="edgeStyle=orthogonalEdgeStyle;rounded=0;orthogonalLoop=1;jettySize=auto;html=1;exitX=0.75;exitY=1;exitDx=0;exitDy=0;entryX=0.75;entryY=0;entryDx=0;entryDy=0;" edge="1" parent="1" source="iO7XN2Z6oZD6PPcnX_Sq-9" target="iO7XN2Z6oZD6PPcnX_Sq-10">
          <mxGeometry relative="1" as="geometry" />
        </mxCell>
        <mxCell id="iO7XN2Z6oZD6PPcnX_Sq-43" value="&lt;font style=&quot;font-size: 14px;&quot;&gt;HTTPS-request&lt;/font&gt;" style="edgeStyle=orthogonalEdgeStyle;rounded=0;orthogonalLoop=1;jettySize=auto;html=1;exitX=0;exitY=0.75;exitDx=0;exitDy=0;entryX=0.75;entryY=0;entryDx=0;entryDy=0;" edge="1" parent="1" source="iO7XN2Z6oZD6PPcnX_Sq-9" target="iO7XN2Z6oZD6PPcnX_Sq-21">
          <mxGeometry relative="1" as="geometry" />
        </mxCell>
        <mxCell id="iO7XN2Z6oZD6PPcnX_Sq-45" value="&lt;font style=&quot;font-size: 14px;&quot;&gt;HTTPS-request&lt;/font&gt;" style="edgeStyle=orthogonalEdgeStyle;rounded=0;orthogonalLoop=1;jettySize=auto;html=1;exitX=1;exitY=0.75;exitDx=0;exitDy=0;entryX=0.25;entryY=0;entryDx=0;entryDy=0;" edge="1" parent="1" source="iO7XN2Z6oZD6PPcnX_Sq-9" target="iO7XN2Z6oZD6PPcnX_Sq-28">
          <mxGeometry relative="1" as="geometry" />
        </mxCell>
        <mxCell id="iO7XN2Z6oZD6PPcnX_Sq-9" value="Machine 2" style="swimlane;whiteSpace=wrap;html=1;" vertex="1" parent="1">
          <mxGeometry x="290" y="90" width="220" height="180" as="geometry" />
        </mxCell>
        <mxCell id="iO7XN2Z6oZD6PPcnX_Sq-5" value="&lt;font style=&quot;font-size: 18px;&quot;&gt;Kafka&lt;/font&gt;" style="rounded=1;whiteSpace=wrap;html=1;" vertex="1" parent="iO7XN2Z6oZD6PPcnX_Sq-9">
          <mxGeometry x="47.5" y="55" width="125" height="70" as="geometry" />
        </mxCell>
        <mxCell id="iO7XN2Z6oZD6PPcnX_Sq-10" value="Machine 1" style="swimlane;whiteSpace=wrap;html=1;" vertex="1" parent="1">
          <mxGeometry x="290" y="430" width="220" height="240" as="geometry" />
        </mxCell>
        <mxCell id="iO7XN2Z6oZD6PPcnX_Sq-15" style="edgeStyle=orthogonalEdgeStyle;rounded=0;orthogonalLoop=1;jettySize=auto;html=1;exitX=0.75;exitY=1;exitDx=0;exitDy=0;entryX=0.75;entryY=0;entryDx=0;entryDy=0;" edge="1" parent="iO7XN2Z6oZD6PPcnX_Sq-10" source="iO7XN2Z6oZD6PPcnX_Sq-2" target="iO7XN2Z6oZD6PPcnX_Sq-11">
          <mxGeometry relative="1" as="geometry" />
        </mxCell>
        <mxCell id="iO7XN2Z6oZD6PPcnX_Sq-2" value="&lt;font style=&quot;font-size: 18px;&quot;&gt;Solve-GIA service&lt;/font&gt;" style="rounded=0;whiteSpace=wrap;html=1;" vertex="1" parent="iO7XN2Z6oZD6PPcnX_Sq-10">
          <mxGeometry x="20" y="50" width="180" height="50" as="geometry" />
        </mxCell>
        <mxCell id="iO7XN2Z6oZD6PPcnX_Sq-16" style="edgeStyle=orthogonalEdgeStyle;rounded=0;orthogonalLoop=1;jettySize=auto;html=1;exitX=0.25;exitY=0;exitDx=0;exitDy=0;entryX=0.25;entryY=1;entryDx=0;entryDy=0;" edge="1" parent="iO7XN2Z6oZD6PPcnX_Sq-10" source="iO7XN2Z6oZD6PPcnX_Sq-11" target="iO7XN2Z6oZD6PPcnX_Sq-2">
          <mxGeometry relative="1" as="geometry" />
        </mxCell>
        <mxCell id="iO7XN2Z6oZD6PPcnX_Sq-35" style="edgeStyle=orthogonalEdgeStyle;rounded=0;orthogonalLoop=1;jettySize=auto;html=1;exitX=0.5;exitY=1;exitDx=0;exitDy=0;entryX=0.5;entryY=1;entryDx=0;entryDy=0;" edge="1" parent="iO7XN2Z6oZD6PPcnX_Sq-10" source="iO7XN2Z6oZD6PPcnX_Sq-11" target="iO7XN2Z6oZD6PPcnX_Sq-10">
          <mxGeometry relative="1" as="geometry" />
        </mxCell>
        <mxCell id="iO7XN2Z6oZD6PPcnX_Sq-11" value="Service-Broker" style="shape=process;whiteSpace=wrap;html=1;backgroundOutline=1;" vertex="1" parent="iO7XN2Z6oZD6PPcnX_Sq-10">
          <mxGeometry x="20" y="150" width="180" height="60" as="geometry" />
        </mxCell>
        <mxCell id="iO7XN2Z6oZD6PPcnX_Sq-42" value="&lt;font style=&quot;font-size: 14px;&quot;&gt;HTTPS-request&lt;/font&gt;" style="edgeStyle=orthogonalEdgeStyle;rounded=0;orthogonalLoop=1;jettySize=auto;html=1;exitX=0.25;exitY=0;exitDx=0;exitDy=0;entryX=0;entryY=0.25;entryDx=0;entryDy=0;" edge="1" parent="1" source="iO7XN2Z6oZD6PPcnX_Sq-21" target="iO7XN2Z6oZD6PPcnX_Sq-9">
          <mxGeometry relative="1" as="geometry" />
        </mxCell>
        <mxCell id="iO7XN2Z6oZD6PPcnX_Sq-21" value="Machine 3" style="swimlane;whiteSpace=wrap;html=1;" vertex="1" parent="1">
          <mxGeometry x="40" y="430" width="220" height="240" as="geometry" />
        </mxCell>
        <mxCell id="iO7XN2Z6oZD6PPcnX_Sq-22" style="edgeStyle=orthogonalEdgeStyle;rounded=0;orthogonalLoop=1;jettySize=auto;html=1;exitX=0.75;exitY=1;exitDx=0;exitDy=0;entryX=0.75;entryY=0;entryDx=0;entryDy=0;" edge="1" parent="iO7XN2Z6oZD6PPcnX_Sq-21" source="iO7XN2Z6oZD6PPcnX_Sq-23" target="iO7XN2Z6oZD6PPcnX_Sq-25">
          <mxGeometry relative="1" as="geometry" />
        </mxCell>
        <mxCell id="iO7XN2Z6oZD6PPcnX_Sq-23" value="&lt;span style=&quot;font-size: 18px;&quot;&gt;Telegram bot service&lt;br&gt;&lt;/span&gt;" style="rounded=0;whiteSpace=wrap;html=1;" vertex="1" parent="iO7XN2Z6oZD6PPcnX_Sq-21">
          <mxGeometry x="20" y="50" width="180" height="50" as="geometry" />
        </mxCell>
        <mxCell id="iO7XN2Z6oZD6PPcnX_Sq-24" style="edgeStyle=orthogonalEdgeStyle;rounded=0;orthogonalLoop=1;jettySize=auto;html=1;exitX=0.25;exitY=0;exitDx=0;exitDy=0;entryX=0.25;entryY=1;entryDx=0;entryDy=0;" edge="1" parent="iO7XN2Z6oZD6PPcnX_Sq-21" source="iO7XN2Z6oZD6PPcnX_Sq-25" target="iO7XN2Z6oZD6PPcnX_Sq-23">
          <mxGeometry relative="1" as="geometry" />
        </mxCell>
        <mxCell id="iO7XN2Z6oZD6PPcnX_Sq-37" style="edgeStyle=orthogonalEdgeStyle;rounded=0;orthogonalLoop=1;jettySize=auto;html=1;exitX=0.5;exitY=1;exitDx=0;exitDy=0;entryX=0.5;entryY=1;entryDx=0;entryDy=0;" edge="1" parent="iO7XN2Z6oZD6PPcnX_Sq-21" source="iO7XN2Z6oZD6PPcnX_Sq-25" target="iO7XN2Z6oZD6PPcnX_Sq-21">
          <mxGeometry relative="1" as="geometry" />
        </mxCell>
        <mxCell id="iO7XN2Z6oZD6PPcnX_Sq-25" value="Service-Broker" style="shape=process;whiteSpace=wrap;html=1;backgroundOutline=1;" vertex="1" parent="iO7XN2Z6oZD6PPcnX_Sq-21">
          <mxGeometry x="20" y="150" width="180" height="60" as="geometry" />
        </mxCell>
        <mxCell id="iO7XN2Z6oZD6PPcnX_Sq-46" value="&lt;font style=&quot;font-size: 14px;&quot;&gt;HTTPS-request&lt;/font&gt;" style="edgeStyle=orthogonalEdgeStyle;rounded=0;orthogonalLoop=1;jettySize=auto;html=1;exitX=0.75;exitY=0;exitDx=0;exitDy=0;entryX=1;entryY=0.25;entryDx=0;entryDy=0;" edge="1" parent="1" source="iO7XN2Z6oZD6PPcnX_Sq-28" target="iO7XN2Z6oZD6PPcnX_Sq-9">
          <mxGeometry relative="1" as="geometry" />
        </mxCell>
        <mxCell id="iO7XN2Z6oZD6PPcnX_Sq-28" value="Machine 4" style="swimlane;whiteSpace=wrap;html=1;" vertex="1" parent="1">
          <mxGeometry x="540" y="430" width="220" height="240" as="geometry" />
        </mxCell>
        <mxCell id="iO7XN2Z6oZD6PPcnX_Sq-29" style="edgeStyle=orthogonalEdgeStyle;rounded=0;orthogonalLoop=1;jettySize=auto;html=1;exitX=0.75;exitY=1;exitDx=0;exitDy=0;entryX=0.75;entryY=0;entryDx=0;entryDy=0;" edge="1" parent="iO7XN2Z6oZD6PPcnX_Sq-28" source="iO7XN2Z6oZD6PPcnX_Sq-30" target="iO7XN2Z6oZD6PPcnX_Sq-32">
          <mxGeometry relative="1" as="geometry" />
        </mxCell>
        <mxCell id="iO7XN2Z6oZD6PPcnX_Sq-30" value="&lt;span style=&quot;font-size: 18px;&quot;&gt;Analitics service&lt;/span&gt;" style="rounded=0;whiteSpace=wrap;html=1;" vertex="1" parent="iO7XN2Z6oZD6PPcnX_Sq-28">
          <mxGeometry x="20" y="50" width="180" height="50" as="geometry" />
        </mxCell>
        <mxCell id="iO7XN2Z6oZD6PPcnX_Sq-31" style="edgeStyle=orthogonalEdgeStyle;rounded=0;orthogonalLoop=1;jettySize=auto;html=1;exitX=0.25;exitY=0;exitDx=0;exitDy=0;entryX=0.25;entryY=1;entryDx=0;entryDy=0;" edge="1" parent="iO7XN2Z6oZD6PPcnX_Sq-28" source="iO7XN2Z6oZD6PPcnX_Sq-32" target="iO7XN2Z6oZD6PPcnX_Sq-30">
          <mxGeometry relative="1" as="geometry" />
        </mxCell>
        <mxCell id="iO7XN2Z6oZD6PPcnX_Sq-36" style="edgeStyle=orthogonalEdgeStyle;rounded=0;orthogonalLoop=1;jettySize=auto;html=1;exitX=0.5;exitY=1;exitDx=0;exitDy=0;entryX=0.5;entryY=1;entryDx=0;entryDy=0;" edge="1" parent="iO7XN2Z6oZD6PPcnX_Sq-28" source="iO7XN2Z6oZD6PPcnX_Sq-32" target="iO7XN2Z6oZD6PPcnX_Sq-28">
          <mxGeometry relative="1" as="geometry" />
        </mxCell>
        <mxCell id="iO7XN2Z6oZD6PPcnX_Sq-32" value="Service-Broker" style="shape=process;whiteSpace=wrap;html=1;backgroundOutline=1;" vertex="1" parent="iO7XN2Z6oZD6PPcnX_Sq-28">
          <mxGeometry x="20" y="150" width="180" height="60" as="geometry" />
        </mxCell>
        <mxCell id="iO7XN2Z6oZD6PPcnX_Sq-33" value="" style="endArrow=classic;html=1;rounded=0;entryX=0.25;entryY=1;entryDx=0;entryDy=0;exitX=0.25;exitY=0;exitDx=0;exitDy=0;" edge="1" parent="1" source="iO7XN2Z6oZD6PPcnX_Sq-10" target="iO7XN2Z6oZD6PPcnX_Sq-9">
          <mxGeometry relative="1" as="geometry">
            <mxPoint x="350" y="430" as="sourcePoint" />
            <mxPoint x="450" y="430" as="targetPoint" />
          </mxGeometry>
        </mxCell>
        <mxCell id="iO7XN2Z6oZD6PPcnX_Sq-34" value="&lt;font style=&quot;font-size: 14px;&quot;&gt;HTTPS-request&lt;/font&gt;" style="edgeLabel;resizable=0;html=1;align=center;verticalAlign=middle;" connectable="0" vertex="1" parent="iO7XN2Z6oZD6PPcnX_Sq-33">
          <mxGeometry relative="1" as="geometry" />
        </mxCell>
      </root>
    </mxGraphModel>
  </diagram>
</mxfile>
